<?xml version="1.0" encoding="UTF-8"?>
<!DOCTYPE svg PUBLIC "-//W3C//DTD SVG 1.1//EN" "http://www.w3.org/Graphics/SVG/1.1/DTD/svg11.dtd">
<!-- Creator: CorelDRAW 2018 (64 Bit) -->
<svg xmlns="http://www.w3.org/2000/svg" xml:space="preserve" width="59.1691mm" height="21.6343mm" version="1.1" style="shape-rendering:geometricPrecision; text-rendering:geometricPrecision; image-rendering:optimizeQuality; fill-rule:evenodd; clip-rule:evenodd"
viewBox="0 0 151.48 55.39"
 xmlns:xlink="http://www.w3.org/1999/xlink">
 <defs>
  <style type="text/css">
   <![CDATA[
    .fil0 {fill:#373435}
    .fil1 {fill:#FFCC29}
   ]]>
  </style>
 </defs>
 <g id="Camada_x0020_1">
  <metadata id="CorelCorpID_0Corel-Layer"/>
  <g id="_2154146443648">
   <polygon class="fil0" points="73.5,19.29 73.5,47.75 82.5,47.75 82.5,26.81 97.67,26.81 97.67,19.29 "/>
   <path class="fil0" d="M29.47 0l0 27.54c0,8.13 -2.6,13.46 -9.91,13.46 -7.31,0 -9.91,-5.33 -9.91,-13.46l0 -27.54 -9.57 0 0 30.48c0,12.78 7.24,18.04 19.48,18.04 12.23,0 19.48,-5.27 19.48,-18.04l0 -22.96 11.06 0 0 40.18 9.57 0 0 -40.18 38.07 0 0 -7.52 -68.26 0z"/>
   <path class="fil0" d="M-0 51.17l0.83 0 0 2.24c0,0.36 0.01,0.59 0.03,0.69 0.04,0.17 0.12,0.31 0.25,0.41 0.13,0.1 0.32,0.15 0.55,0.15 0.24,0 0.41,-0.05 0.53,-0.15 0.12,-0.1 0.19,-0.22 0.22,-0.36 0.02,-0.14 0.04,-0.38 0.04,-0.7l0 -2.29 0.83 0 0 2.18c0,0.5 -0.02,0.85 -0.07,1.05 -0.05,0.21 -0.13,0.38 -0.25,0.52 -0.12,0.14 -0.28,0.25 -0.48,0.34 -0.2,0.08 -0.47,0.13 -0.79,0.13 -0.39,0 -0.69,-0.05 -0.89,-0.14 -0.2,-0.09 -0.36,-0.21 -0.48,-0.36 -0.12,-0.15 -0.2,-0.3 -0.23,-0.46 -0.05,-0.24 -0.08,-0.59 -0.08,-1.05l0 -2.21zm4.16 4.14l0 -4.14 0.81 0 1.68 2.77 0 -2.77 0.77 0 0 4.14 -0.83 0 -1.66 -2.7 0 2.7 -0.77 0zm4.12 0l0 -4.14 0.83 0 0 4.14 -0.83 0zm2.67 0l-1.47 -4.14 0.9 0 1.04 3.07 1.01 -3.07 0.88 0 -1.47 4.14 -0.89 0zm2.79 0l0 -4.14 3.05 0 0 0.7 -2.22 0 0 0.92 2.07 0 0 0.7 -2.07 0 0 1.13 2.3 0 0 0.7 -3.13 0zm3.84 0l0 -4.14 1.75 0c0.44,0 0.76,0.04 0.96,0.11 0.2,0.07 0.36,0.21 0.48,0.4 0.12,0.19 0.18,0.41 0.18,0.65 0,0.31 -0.09,0.57 -0.27,0.77 -0.18,0.2 -0.45,0.33 -0.81,0.38 0.18,0.11 0.33,0.22 0.45,0.35 0.12,0.13 0.27,0.35 0.47,0.67l0.5 0.81 -0.99 0 -0.6 -0.9c-0.21,-0.32 -0.36,-0.52 -0.44,-0.61 -0.08,-0.08 -0.16,-0.14 -0.25,-0.17 -0.09,-0.03 -0.23,-0.05 -0.42,-0.05l-0.17 0 0 1.73 -0.83 0zm0.83 -2.39l0.61 0c0.4,0 0.65,-0.02 0.75,-0.05 0.1,-0.03 0.18,-0.09 0.23,-0.18 0.06,-0.08 0.08,-0.19 0.08,-0.31 0,-0.14 -0.04,-0.25 -0.11,-0.34 -0.07,-0.09 -0.18,-0.14 -0.31,-0.16 -0.07,-0.01 -0.27,-0.01 -0.61,-0.01l-0.65 0 0 1.05zm3.11 1.04l0.81 -0.08c0.05,0.27 0.15,0.47 0.3,0.6 0.15,0.13 0.35,0.19 0.6,0.19 0.27,0 0.47,-0.06 0.6,-0.17 0.14,-0.11 0.2,-0.25 0.2,-0.4 0,-0.1 -0.03,-0.18 -0.09,-0.25 -0.06,-0.07 -0.16,-0.13 -0.3,-0.18 -0.1,-0.03 -0.32,-0.09 -0.67,-0.18 -0.45,-0.11 -0.76,-0.25 -0.94,-0.41 -0.25,-0.23 -0.38,-0.51 -0.38,-0.83 0,-0.21 0.06,-0.41 0.18,-0.59 0.12,-0.18 0.29,-0.32 0.51,-0.42 0.22,-0.1 0.49,-0.14 0.81,-0.14 0.52,0 0.91,0.11 1.17,0.34 0.26,0.23 0.4,0.53 0.41,0.91l-0.83 0.04c-0.04,-0.21 -0.11,-0.37 -0.23,-0.46 -0.12,-0.09 -0.29,-0.14 -0.53,-0.14 -0.24,0 -0.43,0.05 -0.57,0.15 -0.09,0.06 -0.13,0.15 -0.13,0.26 0,0.1 0.04,0.18 0.12,0.25 0.1,0.09 0.36,0.18 0.76,0.28 0.4,0.1 0.7,0.2 0.9,0.3 0.19,0.1 0.34,0.24 0.46,0.42 0.11,0.18 0.16,0.4 0.16,0.66 0,0.24 -0.07,0.46 -0.2,0.67 -0.13,0.21 -0.32,0.36 -0.56,0.46 -0.24,0.1 -0.54,0.15 -0.9,0.15 -0.52,0 -0.92,-0.12 -1.2,-0.36 -0.28,-0.24 -0.45,-0.6 -0.5,-1.06zm4.02 1.35l0 -4.14 0.83 0 0 4.14 -0.83 0zm1.62 -4.14l1.52 0c0.34,0 0.6,0.03 0.78,0.08 0.24,0.07 0.45,0.2 0.62,0.38 0.17,0.18 0.3,0.41 0.39,0.67 0.09,0.27 0.13,0.59 0.13,0.98 0,0.34 -0.04,0.63 -0.13,0.88 -0.1,0.3 -0.25,0.55 -0.44,0.73 -0.14,0.14 -0.34,0.25 -0.58,0.33 -0.18,0.06 -0.43,0.09 -0.74,0.09l-1.56 0 0 -4.14zm0.83 0.7l0 2.74 0.62 0c0.23,0 0.4,-0.01 0.5,-0.04 0.13,-0.03 0.25,-0.09 0.34,-0.17 0.09,-0.08 0.16,-0.22 0.22,-0.4 0.06,-0.19 0.08,-0.44 0.08,-0.76 0,-0.32 -0.03,-0.57 -0.08,-0.74 -0.06,-0.17 -0.14,-0.31 -0.24,-0.4 -0.1,-0.1 -0.23,-0.16 -0.39,-0.2 -0.12,-0.03 -0.34,-0.04 -0.68,-0.04l-0.37 0zm7.03 3.44l-0.9 0 -0.36 -0.94 -1.64 0 -0.34 0.94 -0.88 0 1.6 -4.14 0.88 0 1.65 4.14zm-1.53 -1.64l-0.57 -1.54 -0.56 1.54 1.12 0zm1.97 -2.5l1.52 0c0.34,0 0.6,0.03 0.78,0.08 0.24,0.07 0.45,0.2 0.62,0.38 0.17,0.18 0.3,0.41 0.39,0.67 0.09,0.27 0.13,0.59 0.13,0.98 0,0.34 -0.04,0.63 -0.13,0.88 -0.1,0.3 -0.25,0.55 -0.44,0.73 -0.14,0.14 -0.34,0.25 -0.58,0.33 -0.18,0.06 -0.43,0.09 -0.74,0.09l-1.56 0 0 -4.14zm0.83 0.7l0 2.74 0.62 0c0.23,0 0.4,-0.01 0.5,-0.04 0.13,-0.03 0.25,-0.09 0.34,-0.17 0.09,-0.08 0.16,-0.22 0.22,-0.4 0.06,-0.19 0.08,-0.44 0.08,-0.76 0,-0.32 -0.03,-0.57 -0.08,-0.74 -0.06,-0.17 -0.14,-0.31 -0.24,-0.4 -0.1,-0.1 -0.23,-0.16 -0.39,-0.2 -0.12,-0.03 -0.34,-0.04 -0.68,-0.04l-0.37 0zm3.32 3.44l0 -4.14 3.05 0 0 0.7 -2.22 0 0 0.92 2.07 0 0 0.7 -2.07 0 0 1.13 2.3 0 0 0.7 -3.13 0zm6.36 0l0 -3.44 -1.22 0 0 -0.7 3.27 0 0 0.7 -1.22 0 0 3.44 -0.83 0zm2.59 0l0 -4.14 3.05 0 0 0.7 -2.22 0 0 0.92 2.07 0 0 0.7 -2.07 0 0 1.13 2.3 0 0 0.7 -3.13 0zm6.47 -1.52l0.8 0.26c-0.12,0.45 -0.33,0.79 -0.62,1.01 -0.29,0.22 -0.65,0.33 -1.09,0.33 -0.55,0 -1,-0.19 -1.35,-0.56 -0.35,-0.38 -0.53,-0.89 -0.53,-1.54 0,-0.69 0.18,-1.23 0.53,-1.61 0.35,-0.38 0.82,-0.57 1.4,-0.57 0.5,0 0.91,0.15 1.23,0.45 0.19,0.18 0.33,0.43 0.42,0.76l-0.82 0.2c-0.05,-0.22 -0.15,-0.39 -0.3,-0.51 -0.15,-0.12 -0.34,-0.19 -0.56,-0.19 -0.3,0 -0.55,0.11 -0.74,0.33 -0.19,0.22 -0.28,0.58 -0.28,1.07 0,0.52 0.09,0.9 0.28,1.12 0.19,0.22 0.43,0.33 0.73,0.33 0.22,0 0.41,-0.07 0.57,-0.21 0.16,-0.14 0.27,-0.36 0.34,-0.67zm1.53 1.52l0 -4.14 0.81 0 1.68 2.77 0 -2.77 0.77 0 0 4.14 -0.83 0 -1.66 -2.7 0 2.7 -0.77 0zm3.97 -2.05c0,-0.42 0.06,-0.78 0.19,-1.06 0.09,-0.21 0.22,-0.4 0.38,-0.57 0.16,-0.17 0.34,-0.29 0.53,-0.37 0.26,-0.11 0.55,-0.16 0.89,-0.16 0.61,0 1.09,0.19 1.46,0.57 0.36,0.38 0.55,0.91 0.55,1.58 0,0.67 -0.18,1.19 -0.54,1.57 -0.36,0.38 -0.84,0.57 -1.45,0.57 -0.61,0 -1.1,-0.19 -1.46,-0.56 -0.36,-0.38 -0.54,-0.89 -0.54,-1.55zm0.86 -0.03c0,0.47 0.11,0.82 0.32,1.07 0.22,0.24 0.49,0.36 0.82,0.36 0.33,0 0.6,-0.12 0.82,-0.36 0.21,-0.24 0.32,-0.6 0.32,-1.08 0,-0.47 -0.1,-0.83 -0.31,-1.06 -0.21,-0.23 -0.48,-0.35 -0.82,-0.35 -0.34,0 -0.62,0.12 -0.83,0.36 -0.21,0.24 -0.31,0.59 -0.31,1.07zm3.81 2.07l0 -4.11 0.83 0 0 3.41 2.07 0 0 0.7 -2.9 0zm3.32 -2.05c0,-0.42 0.06,-0.78 0.19,-1.06 0.09,-0.21 0.22,-0.4 0.38,-0.57 0.16,-0.17 0.34,-0.29 0.53,-0.37 0.26,-0.11 0.55,-0.16 0.89,-0.16 0.61,0 1.09,0.19 1.46,0.57 0.36,0.38 0.55,0.91 0.55,1.58 0,0.67 -0.18,1.19 -0.54,1.57 -0.36,0.38 -0.84,0.57 -1.45,0.57 -0.61,0 -1.1,-0.19 -1.46,-0.56 -0.36,-0.38 -0.54,-0.89 -0.54,-1.55zm0.86 -0.03c0,0.47 0.11,0.82 0.32,1.07 0.22,0.24 0.49,0.36 0.82,0.36 0.33,0 0.6,-0.12 0.82,-0.36 0.21,-0.24 0.32,-0.6 0.32,-1.08 0,-0.47 -0.1,-0.83 -0.31,-1.06 -0.21,-0.23 -0.48,-0.35 -0.82,-0.35 -0.34,0 -0.62,0.12 -0.83,0.36 -0.21,0.24 -0.31,0.59 -0.31,1.07zm0.63 -2.31l0.39 -0.85 0.88 0 -0.77 0.85 -0.5 0zm5.07 2.86l0 -0.7 1.79 0 0 1.65c-0.17,0.17 -0.43,0.32 -0.76,0.45 -0.33,0.13 -0.66,0.19 -1,0.19 -0.43,0 -0.81,-0.09 -1.13,-0.27 -0.32,-0.18 -0.56,-0.44 -0.72,-0.78 -0.16,-0.34 -0.24,-0.71 -0.24,-1.1 0,-0.43 0.09,-0.82 0.27,-1.15 0.18,-0.33 0.44,-0.59 0.79,-0.77 0.26,-0.14 0.59,-0.21 0.98,-0.21 0.51,0 0.91,0.11 1.2,0.32 0.29,0.22 0.47,0.51 0.55,0.9l-0.82 0.16c-0.06,-0.2 -0.17,-0.36 -0.33,-0.48 -0.16,-0.12 -0.36,-0.18 -0.6,-0.18 -0.36,0 -0.65,0.12 -0.87,0.35 -0.21,0.23 -0.32,0.58 -0.32,1.03 0,0.49 0.11,0.86 0.33,1.11 0.22,0.25 0.5,0.37 0.85,0.37 0.17,0 0.35,-0.03 0.52,-0.1 0.17,-0.07 0.32,-0.15 0.45,-0.25l0 -0.53 -0.95 0zm2.53 1.52l0 -4.14 0.83 0 0 4.14 -0.83 0zm4.26 -1.52l0.8 0.26c-0.12,0.45 -0.33,0.79 -0.62,1.01 -0.29,0.22 -0.65,0.33 -1.09,0.33 -0.55,0 -1,-0.19 -1.35,-0.56 -0.35,-0.38 -0.53,-0.89 -0.53,-1.54 0,-0.69 0.18,-1.23 0.53,-1.61 0.35,-0.38 0.82,-0.57 1.39,-0.57 0.5,0 0.91,0.15 1.23,0.45 0.19,0.18 0.33,0.43 0.42,0.76l-0.82 0.2c-0.05,-0.22 -0.15,-0.39 -0.3,-0.51 -0.15,-0.12 -0.34,-0.19 -0.56,-0.19 -0.3,0 -0.55,0.11 -0.74,0.33 -0.19,0.22 -0.28,0.58 -0.28,1.07 0,0.52 0.09,0.9 0.28,1.12 0.19,0.22 0.43,0.33 0.73,0.33 0.22,0 0.41,-0.07 0.57,-0.21 0.16,-0.14 0.27,-0.36 0.34,-0.67zm5.23 1.52l-0.9 0 -0.36 -0.94 -1.65 0 -0.34 0.94 -0.88 0 1.6 -4.14 0.88 0 1.65 4.14zm-1.53 -1.64l-0.57 -1.54 -0.56 1.54 1.12 0zm3.36 1.64l0 -4.14 2.82 0 0 0.7 -1.99 0 0 0.98 1.72 0 0 0.7 -1.72 0 0 1.76 -0.83 0zm3.51 0l0 -4.14 3.05 0 0 0.7 -2.22 0 0 0.92 2.07 0 0 0.7 -2.07 0 0 1.13 2.3 0 0 0.7 -3.13 0zm3.83 -4.14l1.52 0c0.34,0 0.6,0.03 0.78,0.08 0.24,0.07 0.45,0.2 0.62,0.38 0.17,0.18 0.3,0.41 0.39,0.67 0.09,0.27 0.13,0.59 0.13,0.98 0,0.34 -0.04,0.63 -0.13,0.88 -0.1,0.3 -0.25,0.55 -0.44,0.73 -0.14,0.14 -0.34,0.25 -0.58,0.33 -0.18,0.06 -0.43,0.09 -0.74,0.09l-1.56 0 0 -4.14zm0.83 0.7l0 2.74 0.62 0c0.23,0 0.4,-0.01 0.5,-0.04 0.13,-0.03 0.25,-0.09 0.34,-0.17 0.09,-0.08 0.16,-0.22 0.22,-0.4 0.06,-0.19 0.08,-0.44 0.08,-0.76 0,-0.32 -0.03,-0.57 -0.08,-0.74 -0.06,-0.17 -0.13,-0.31 -0.24,-0.4 -0.1,-0.1 -0.23,-0.16 -0.39,-0.2 -0.12,-0.03 -0.34,-0.04 -0.68,-0.04l-0.37 0zm3.32 3.44l0 -4.14 3.05 0 0 0.7 -2.22 0 0 0.92 2.07 0 0 0.7 -2.07 0 0 1.13 2.3 0 0 0.7 -3.13 0zm3.84 0l0 -4.14 1.75 0c0.44,0 0.76,0.04 0.96,0.11 0.2,0.07 0.36,0.21 0.48,0.4 0.12,0.19 0.18,0.41 0.18,0.65 0,0.31 -0.09,0.57 -0.27,0.77 -0.18,0.2 -0.45,0.33 -0.81,0.38 0.18,0.11 0.33,0.22 0.45,0.35 0.12,0.13 0.27,0.35 0.47,0.67l0.5 0.81 -0.99 0 -0.6 -0.9c-0.21,-0.32 -0.36,-0.52 -0.44,-0.61 -0.08,-0.08 -0.16,-0.14 -0.25,-0.17 -0.09,-0.03 -0.23,-0.05 -0.42,-0.05l-0.17 0 0 1.73 -0.83 0zm0.83 -2.39l0.61 0c0.4,0 0.65,-0.02 0.75,-0.05 0.1,-0.03 0.18,-0.09 0.23,-0.18 0.06,-0.08 0.08,-0.19 0.08,-0.31 0,-0.14 -0.04,-0.25 -0.11,-0.34 -0.07,-0.09 -0.18,-0.14 -0.31,-0.16 -0.07,-0.01 -0.27,-0.01 -0.61,-0.01l-0.65 0 0 1.05zm7.03 2.39l-0.9 0 -0.36 -0.94 -1.64 0 -0.34 0.94 -0.88 0 1.6 -4.14 0.88 0 1.65 4.14zm-1.53 -1.64l-0.57 -1.54 -0.56 1.54 1.12 0zm1.99 1.64l0 -4.11 0.83 0 0 3.41 2.07 0 0 0.7 -2.9 0zm4.98 -4.14l1.52 0c0.34,0 0.6,0.03 0.78,0.08 0.24,0.07 0.45,0.2 0.62,0.38 0.17,0.18 0.3,0.41 0.39,0.67 0.09,0.27 0.13,0.59 0.13,0.98 0,0.34 -0.04,0.63 -0.13,0.88 -0.1,0.3 -0.25,0.55 -0.44,0.73 -0.14,0.14 -0.34,0.25 -0.58,0.33 -0.18,0.06 -0.43,0.09 -0.74,0.09l-1.56 0 0 -4.14zm0.83 0.7l0 2.74 0.62 0c0.23,0 0.4,-0.01 0.5,-0.04 0.13,-0.03 0.25,-0.09 0.34,-0.17 0.09,-0.08 0.16,-0.22 0.22,-0.4 0.06,-0.19 0.08,-0.44 0.08,-0.76 0,-0.32 -0.03,-0.57 -0.08,-0.74 -0.06,-0.17 -0.14,-0.31 -0.24,-0.4 -0.1,-0.1 -0.23,-0.16 -0.39,-0.2 -0.12,-0.03 -0.34,-0.04 -0.68,-0.04l-0.37 0zm3.15 1.4c0,-0.42 0.06,-0.78 0.19,-1.06 0.09,-0.21 0.22,-0.4 0.38,-0.57 0.16,-0.17 0.34,-0.29 0.53,-0.37 0.26,-0.11 0.55,-0.16 0.89,-0.16 0.61,0 1.09,0.19 1.46,0.57 0.36,0.38 0.55,0.91 0.55,1.58 0,0.67 -0.18,1.19 -0.54,1.57 -0.36,0.38 -0.84,0.57 -1.45,0.57 -0.61,0 -1.1,-0.19 -1.46,-0.56 -0.36,-0.38 -0.54,-0.89 -0.54,-1.55zm0.86 -0.03c0,0.47 0.11,0.82 0.32,1.07 0.22,0.24 0.49,0.36 0.82,0.36 0.33,0 0.6,-0.12 0.82,-0.36 0.21,-0.24 0.32,-0.6 0.32,-1.08 0,-0.47 -0.1,-0.83 -0.31,-1.06 -0.21,-0.23 -0.48,-0.35 -0.82,-0.35 -0.34,0 -0.62,0.12 -0.83,0.36 -0.21,0.24 -0.31,0.59 -0.31,1.07zm5.38 2.07l0 -4.14 1.33 0c0.5,0 0.83,0.02 0.99,0.06 0.24,0.06 0.43,0.2 0.59,0.41 0.16,0.21 0.24,0.48 0.24,0.81 0,0.25 -0.05,0.47 -0.14,0.64 -0.09,0.17 -0.21,0.31 -0.35,0.41 -0.14,0.1 -0.28,0.16 -0.43,0.2 -0.2,0.04 -0.49,0.06 -0.86,0.06l-0.54 0 0 1.56 -0.83 0zm0.83 -3.44l0 1.18 0.45 0c0.33,0 0.55,-0.02 0.66,-0.06 0.11,-0.04 0.2,-0.11 0.26,-0.2 0.06,-0.09 0.09,-0.2 0.09,-0.32 0,-0.15 -0.04,-0.27 -0.13,-0.37 -0.09,-0.1 -0.2,-0.16 -0.33,-0.18 -0.1,-0.02 -0.3,-0.03 -0.6,-0.03l-0.4 0zm6.29 3.44l-0.9 0 -0.36 -0.94 -1.64 0 -0.34 0.94 -0.88 0 1.6 -4.14 0.88 0 1.65 4.14zm-1.53 -1.64l-0.57 -1.54 -0.56 1.54 1.12 0zm1.97 1.64l0 -4.14 1.75 0c0.44,0 0.76,0.04 0.96,0.11 0.2,0.07 0.36,0.21 0.48,0.4 0.12,0.19 0.18,0.41 0.18,0.65 0,0.31 -0.09,0.57 -0.27,0.77 -0.18,0.2 -0.45,0.33 -0.81,0.38 0.18,0.11 0.33,0.22 0.45,0.35 0.12,0.13 0.27,0.35 0.47,0.67l0.5 0.81 -0.99 0 -0.6 -0.9c-0.21,-0.32 -0.36,-0.52 -0.44,-0.61 -0.08,-0.08 -0.16,-0.14 -0.25,-0.17 -0.09,-0.03 -0.23,-0.05 -0.42,-0.05l-0.17 0 0 1.73 -0.83 0zm0.83 -2.39l0.61 0c0.4,0 0.65,-0.02 0.75,-0.05 0.1,-0.03 0.18,-0.09 0.23,-0.18 0.06,-0.08 0.08,-0.19 0.08,-0.31 0,-0.14 -0.04,-0.25 -0.11,-0.34 -0.07,-0.09 -0.18,-0.14 -0.31,-0.16 -0.07,-0.01 -0.27,-0.01 -0.61,-0.01l-0.65 0 0 1.05zm7.03 2.39l-0.9 0 -0.36 -0.94 -1.65 0 -0.34 0.94 -0.88 0 1.6 -4.14 0.88 0 1.65 4.14zm-1.53 -1.64l-0.57 -1.54 -0.56 1.54 1.12 0zm1.98 1.64l0 -4.14 0.81 0 1.68 2.77 0 -2.77 0.77 0 0 4.14 -0.83 0 -1.66 -2.7 0 2.7 -0.77 0zm7.85 0l-0.9 0 -0.36 -0.94 -1.65 0 -0.34 0.94 -0.88 0 1.6 -4.14 0.88 0 1.65 4.14zm-1.53 -1.64l-0.57 -1.54 -0.56 1.54 1.12 0zm-1.04 -2.74l0.39 -0.85 0.88 0 -0.77 0.85 -0.5 0z"/>
   <polygon class="fil1" points="61.82,47.75 61.82,9.51 97.67,9.51 97.67,17.04 71.4,17.04 71.4,47.75 "/>
   <path class="fil0" d="M101.77 47.64l0 -28.45 9.21 0c3.49,0 5.77,0.15 6.83,0.43 1.63,0.42 3,1.35 4.1,2.78 1.1,1.43 1.65,3.28 1.65,5.54 0,1.75 -0.32,3.22 -0.95,4.41 -0.64,1.19 -1.44,2.13 -2.42,2.81 -0.97,0.68 -1.97,1.13 -2.97,1.34 -1.37,0.27 -3.36,0.41 -5.96,0.41l-3.74 0 0 10.73 -5.74 0zm5.74 -23.64l0 8.07 3.14 0c2.27,0 3.78,-0.15 4.54,-0.44 0.76,-0.3 1.36,-0.76 1.8,-1.4 0.43,-0.64 0.65,-1.37 0.65,-2.21 0,-1.03 -0.3,-1.89 -0.91,-2.56 -0.6,-0.67 -1.38,-1.09 -2.31,-1.26 -0.69,-0.13 -2.07,-0.19 -4.13,-0.19l-2.78 0z"/>
   <path class="fil0" d="M125.26 47.64l0 -28.45 12.1 0c3.04,0 5.25,0.26 6.62,0.77 1.38,0.51 2.48,1.42 3.31,2.72 0.83,1.31 1.24,2.8 1.24,4.48 0,2.13 -0.63,3.9 -1.88,5.29 -1.25,1.38 -3.13,2.27 -5.63,2.62 1.25,0.73 2.27,1.52 3.08,2.39 0.81,0.87 1.89,2.4 3.27,4.62l3.48 5.55 -6.87 0 -4.15 -6.19c-1.48,-2.21 -2.48,-3.6 -3.03,-4.18 -0.54,-0.58 -1.12,-0.97 -1.73,-1.19 -0.61,-0.21 -1.57,-0.32 -2.89,-0.32l-1.16 0 0 11.88 -5.75 0zm5.75 -16.42l4.25 0c2.76,0 4.48,-0.11 5.17,-0.34 0.68,-0.23 1.22,-0.64 1.61,-1.21 0.38,-0.57 0.58,-1.28 0.58,-2.13 0,-0.96 -0.26,-1.73 -0.77,-2.32 -0.51,-0.59 -1.23,-0.96 -2.17,-1.12 -0.46,-0.06 -1.86,-0.09 -4.19,-0.09l-4.48 0 0 7.21z"/>
  </g>
 </g>
</svg>
