<?xml version="1.0" encoding="UTF-8" standalone="no"?>
<!-- Created with Inkscape (http://www.inkscape.org/) -->

<svg
   width="200mm"
   height="75mm"
   viewBox="0 0 200 75"
   version="1.1"
   id="svg5"
   inkscape:version="1.1 (ce6663b3b7, 2021-05-25)"
   sodipodi:docname="vale-do-genoma.svg"
   inkscape:export-filename="/home/andres/Desktop/PrototipoCampus/sponsor-vale-do-genoma-temp.png"
   inkscape:export-xdpi="100"
   inkscape:export-ydpi="100"
   xmlns:inkscape="http://www.inkscape.org/namespaces/inkscape"
   xmlns:sodipodi="http://sodipodi.sourceforge.net/DTD/sodipodi-0.dtd"
   xmlns="http://www.w3.org/2000/svg"
   xmlns:svg="http://www.w3.org/2000/svg">
  <sodipodi:namedview
     id="namedview7"
     pagecolor="#ffffff"
     bordercolor="#666666"
     borderopacity="1.0"
     inkscape:pageshadow="2"
     inkscape:pageopacity="0.0"
     inkscape:pagecheckerboard="0"
     inkscape:document-units="mm"
     showgrid="false"
     inkscape:zoom="1.0305625"
     inkscape:cx="272.18146"
     inkscape:cy="132.45194"
     inkscape:window-width="1920"
     inkscape:window-height="964"
     inkscape:window-x="1600"
     inkscape:window-y="27"
     inkscape:window-maximized="1"
     inkscape:current-layer="layer1" />
  <defs
     id="defs2" />
  <g
     inkscape:label="Layer 1"
     inkscape:groupmode="layer"
     id="layer1">
    <g
       aria-label="VALE DO GENOMA"
       id="text1706"
       style="font-size:19.2238px;line-height:1.25;font-family:monospace;-inkscape-font-specification:monospace;fill:#0e71b0;stroke-width:0.264583">
      <path
         d="m 2.8529628,20.218448 h 3.6326225 l 3.7171017,10.344057 3.707716,-10.344057 h 3.632622 L 12.352224,34.232674 H 8.0437645 Z"
         style="font-weight:bold;font-family:sans-serif;-inkscape-font-specification:'sans-serif Bold'"
         id="path1375" />
      <path
         d="m 26.601115,31.679513 h -5.650746 l -0.891729,2.553161 h -3.632623 l 5.190802,-14.014226 h 4.308459 l 5.190802,14.014226 h -3.632623 z m -4.749631,-2.600095 h 3.839128 l -1.91487,-5.575653 z"
         style="font-weight:bold;font-family:sans-serif;-inkscape-font-specification:'sans-serif Bold'"
         id="path1377" />
      <path
         d="m 32.974631,20.218448 h 3.613849 v 11.282719 h 6.345356 v 2.731507 h -9.959205 z"
         style="font-weight:bold;font-family:sans-serif;-inkscape-font-specification:'sans-serif Bold'"
         id="path1379" />
      <path
         d="m 45.224171,20.218448 h 9.7527 v 2.731507 h -6.13885 v 2.60948 h 5.772772 v 2.731507 h -5.772772 v 3.210225 h 6.345356 v 2.731507 h -9.959206 z"
         style="font-weight:bold;font-family:sans-serif;-inkscape-font-specification:'sans-serif Bold'"
         id="path1381" />
      <path
         d="m 68.662567,22.949955 v 8.551212 h 1.295354 q 2.215243,0 3.379184,-1.098235 1.173328,-1.098235 1.173328,-3.191451 0,-2.08383 -1.163942,-3.172678 -1.163941,-1.088848 -3.38857,-1.088848 z m -3.613849,-2.731507 h 3.810968 q 3.191452,0 4.749631,0.459944 1.567566,0.450558 2.684574,1.539406 0.985595,0.948049 1.464313,2.187083 0.478717,1.239034 0.478717,2.8066 0,1.586339 -0.478717,2.834759 -0.478718,1.239035 -1.464313,2.187083 -1.126395,1.088848 -2.703347,1.548793 -1.576953,0.450558 -4.730858,0.450558 h -3.810968 z"
         style="font-weight:bold;font-family:sans-serif;-inkscape-font-specification:'sans-serif Bold'"
         id="path1383" />
      <path
         d="m 87.40765,22.583876 q -1.652045,0 -2.562547,1.220261 -0.910503,1.220261 -0.910503,3.435504 0,2.205856 0.910503,3.426117 0.910502,1.22026 2.562547,1.22026 1.661432,0 2.571935,-1.22026 0.910502,-1.220261 0.910502,-3.426117 0,-2.215243 -0.910502,-3.435504 -0.910503,-1.220261 -2.571935,-1.220261 z m 0,-2.618867 q 3.379184,0 5.294055,1.933644 1.91487,1.933644 1.91487,5.340988 0,3.397957 -1.91487,5.331601 -1.914871,1.933644 -5.294055,1.933644 -3.369797,0 -5.294054,-1.933644 -1.914871,-1.933644 -1.914871,-5.331601 0,-3.407344 1.914871,-5.340988 1.924257,-1.933644 5.294054,-1.933644 z"
         style="font-weight:bold;font-family:sans-serif;-inkscape-font-specification:'sans-serif Bold'"
         id="path1385" />
      <path
         d="m 116.63759,33.190759 q -1.35168,0.657063 -2.8066,0.985595 -1.45493,0.328532 -3.00372,0.328532 -3.50121,0 -5.54749,-1.952418 -2.04629,-1.961803 -2.04629,-5.312827 0,-3.388571 2.08383,-5.331601 2.08383,-1.943031 5.70707,-1.943031 1.3986,0 2.67519,0.262825 1.28596,0.262826 2.42174,0.77909 v 2.900466 q -1.17332,-0.66645 -2.33727,-0.994982 -1.15455,-0.328532 -2.31849,-0.328532 -2.15892,0 -3.33225,1.210875 -1.16394,1.201487 -1.16394,3.44489 0,2.224629 1.12639,3.435503 1.1264,1.210874 3.20084,1.210874 0.5632,0 1.04191,-0.06571 0.48811,-0.07509 0.87296,-0.225279 v -2.72212 h -2.20586 v -2.421749 h 5.63198 z"
         style="font-weight:bold;font-family:sans-serif;-inkscape-font-specification:'sans-serif Bold'"
         id="path1387" />
      <path
         d="m 119.81965,20.218448 h 9.7527 v 2.731507 h -6.13885 v 2.60948 h 5.77277 v 2.731507 h -5.77277 v 3.210225 h 6.34535 v 2.731507 h -9.9592 z"
         style="font-weight:bold;font-family:sans-serif;-inkscape-font-specification:'sans-serif Bold'"
         id="path1389" />
      <path
         d="m 132.95153,20.218448 h 4.03625 l 5.09693,9.6119 v -9.6119 h 3.42612 v 14.014226 h -4.03625 l -5.09693,-9.611901 v 9.611901 h -3.42612 z"
         style="font-weight:bold;font-family:sans-serif;-inkscape-font-specification:'sans-serif Bold'"
         id="path1391" />
      <path
         d="m 155.44188,22.583876 q -1.65205,0 -2.56255,1.220261 -0.9105,1.220261 -0.9105,3.435504 0,2.205856 0.9105,3.426117 0.9105,1.22026 2.56255,1.22026 1.66143,0 2.57193,-1.22026 0.9105,-1.220261 0.9105,-3.426117 0,-2.215243 -0.9105,-3.435504 -0.9105,-1.220261 -2.57193,-1.220261 z m 0,-2.618867 q 3.37918,0 5.29405,1.933644 1.91487,1.933644 1.91487,5.340988 0,3.397957 -1.91487,5.331601 -1.91487,1.933644 -5.29405,1.933644 -3.3698,0 -5.29406,-1.933644 -1.91487,-1.933644 -1.91487,-5.331601 0,-3.407344 1.91487,-5.340988 1.92426,-1.933644 5.29406,-1.933644 z"
         style="font-weight:bold;font-family:sans-serif;-inkscape-font-specification:'sans-serif Bold'"
         id="path1393" />
      <path
         d="m 165.38232,20.218448 h 4.59944 l 3.19145,7.49991 3.21023,-7.49991 h 4.59006 v 14.014226 h -3.41673 V 23.982483 l -3.229,7.55623 h -2.29034 l -3.229,-7.55623 v 10.250191 h -3.42611 z"
         style="font-weight:bold;font-family:sans-serif;-inkscape-font-specification:'sans-serif Bold'"
         id="path1395" />
      <path
         d="m 193.01652,31.679513 h -5.65074 l -0.89173,2.553161 h -3.63262 l 5.1908,-14.014226 h 4.30846 l 5.1908,14.014226 h -3.63262 z m -4.74963,-2.600095 h 3.83913 l -1.91487,-5.575653 z"
         style="font-weight:bold;font-family:sans-serif;-inkscape-font-specification:'sans-serif Bold'"
         id="path1397" />
    </g>
    <g
       aria-label="Guarapuava"
       id="text9266"
       style="font-size:15.1547px;line-height:1.25;font-family:monospace;-inkscape-font-specification:monospace;fill:#808080;stroke-width:0.264583">
      <path
         d="m 60.170645,54.021275 q -1.065565,0.517983 -2.212527,0.776974 -1.146962,0.258991 -2.367922,0.258991 -2.760109,0 -4.373256,-1.539149 -1.613147,-1.546549 -1.613147,-4.188262 0,-2.671312 1.642746,-4.203061 1.642746,-1.53175 4.499052,-1.53175 1.102563,0 2.10893,0.207194 1.013767,0.207193 1.909137,0.614179 v 2.286525 q -0.924969,-0.525383 -1.842539,-0.784374 -0.91017,-0.258992 -1.82774,-0.258992 -1.701944,0 -2.626913,0.954569 -0.91757,0.947169 -0.91757,2.71571 0,1.753743 0.887971,2.708311 0.887971,0.954569 2.523317,0.954569 0.443985,0 0.821373,-0.0518 0.384787,-0.0592 0.688177,-0.177594 V 50.617387 H 55.730791 V 48.70825 h 4.439854 z"
         style="font-weight:bold;font-family:sans-serif;-inkscape-font-specification:'sans-serif Bold'"
         id="path1418" />
      <path
         d="m 62.471969,51.616354 v -5.061433 h 2.663912 v 0.828773 q 0,0.673377 -0.0074,1.694544 -0.0074,1.013766 -0.0074,1.354155 0,0.998967 0.0518,1.442952 0.0518,0.436586 0.177594,0.636379 0.162794,0.258992 0.421786,0.399587 0.266391,0.140596 0.60678,0.140596 0.828773,0 1.302357,-0.636379 0.473584,-0.636379 0.473584,-1.768542 v -4.092065 h 2.649113 v 8.287727 h -2.649113 v -1.198761 q -0.59938,0.725176 -1.272758,1.072965 -0.665978,0.340388 -1.472551,0.340388 -1.435553,0 -2.190328,-0.88057 -0.747375,-0.880571 -0.747375,-2.560316 z"
         style="font-weight:bold;font-family:sans-serif;-inkscape-font-specification:'sans-serif Bold'"
         id="path1420" />
      <path
         d="m 77.064286,51.113171 q -0.828772,0 -1.250558,0.28119 -0.414387,0.281191 -0.414387,0.828773 0,0.503183 0.332989,0.791774 0.340389,0.281191 0.939769,0.281191 0.747376,0 1.257959,-0.532783 0.510583,-0.540182 0.510583,-1.346755 v -0.30339 z m 4.047667,-0.998968 v 4.728445 h -2.671312 v -1.22836 q -0.532782,0.754775 -1.19876,1.102564 -0.665978,0.340388 -1.620547,0.340388 -1.287558,0 -2.094131,-0.747375 -0.799174,-0.754775 -0.799174,-1.953535 0,-1.457752 0.998967,-2.13853 1.006367,-0.680777 3.152297,-0.680777 h 1.561348 v -0.207194 q 0,-0.628979 -0.495784,-0.917569 -0.495783,-0.295991 -1.546549,-0.295991 -0.850972,0 -1.583547,0.170195 -0.732576,0.170194 -1.361555,0.510583 v -2.020133 q 0.850971,-0.207194 1.709343,-0.31079 0.858372,-0.110997 1.716744,-0.110997 2.242126,0 3.233693,0.887971 0.998967,0.880571 0.998967,2.871105 z"
         style="font-weight:bold;font-family:sans-serif;-inkscape-font-specification:'sans-serif Bold'"
         id="path1422" />
      <path
         d="m 89.732669,48.811846 q -0.347788,-0.162794 -0.695577,-0.236792 -0.340389,-0.0814 -0.688177,-0.0814 -1.021166,0 -1.576148,0.658578 -0.547582,0.651179 -0.547582,1.872138 v 3.818275 h -2.649113 v -8.287727 h 2.649113 v 1.361555 q 0.510583,-0.813973 1.169161,-1.183961 0.665978,-0.377388 1.590948,-0.377388 0.133195,0 0.28859,0.0148 0.155395,0.0074 0.451385,0.0444 z"
         style="font-weight:bold;font-family:sans-serif;-inkscape-font-specification:'sans-serif Bold'"
         id="path1424" />
      <path
         d="m 94.764505,51.113171 q -0.828773,0 -1.250559,0.28119 -0.414386,0.281191 -0.414386,0.828773 0,0.503183 0.332989,0.791774 0.340388,0.281191 0.939769,0.281191 0.747375,0 1.257958,-0.532783 0.510583,-0.540182 0.510583,-1.346755 v -0.30339 z m 4.047666,-0.998968 v 4.728445 h -2.671312 v -1.22836 q -0.532782,0.754775 -1.19876,1.102564 -0.665978,0.340388 -1.620547,0.340388 -1.287557,0 -2.094131,-0.747375 -0.799173,-0.754775 -0.799173,-1.953535 0,-1.457752 0.998967,-2.13853 1.006366,-0.680777 3.152296,-0.680777 h 1.561348 v -0.207194 q 0,-0.628979 -0.495783,-0.917569 -0.495784,-0.295991 -1.546549,-0.295991 -0.850972,0 -1.583548,0.170195 -0.732576,0.170194 -1.361555,0.510583 v -2.020133 q 0.850972,-0.207194 1.709343,-0.31079 0.858372,-0.110997 1.716744,-0.110997 2.242126,0 3.233693,0.887971 0.998967,0.880571 0.998967,2.871105 z"
         style="font-weight:bold;font-family:sans-serif;-inkscape-font-specification:'sans-serif Bold'"
         id="path1426" />
      <path
         d="m 103.9254,53.643887 v 4.351057 h -2.64911 V 46.554921 h 2.64911 v 1.21356 q 0.54758,-0.725176 1.21356,-1.065565 0.66598,-0.347789 1.53175,-0.347789 1.53175,0 2.51592,1.22096 0.98416,1.21356 0.98416,3.130097 0,1.916537 -0.98416,3.137496 -0.98417,1.21356 -2.51592,1.21356 -0.86577,0 -1.53175,-0.340388 -0.66598,-0.347789 -1.21356,-1.072965 z m 1.76114,-5.364823 q -0.85097,0 -1.30976,0.628979 -0.45138,0.62158 -0.45138,1.798141 0,1.176561 0.45138,1.80554 0.45879,0.62158 1.30976,0.62158 0.85097,0 1.29496,-0.62158 0.45138,-0.621579 0.45138,-1.80554 0,-1.183961 -0.45138,-1.805541 -0.44399,-0.621579 -1.29496,-0.621579 z"
         style="font-weight:bold;font-family:sans-serif;-inkscape-font-specification:'sans-serif Bold'"
         id="path1428" />
      <path
         d="m 112.03553,51.616354 v -5.061433 h 2.66392 v 0.828773 q 0,0.673377 -0.007,1.694544 -0.007,1.013766 -0.007,1.354155 0,0.998967 0.0518,1.442952 0.0518,0.436586 0.17759,0.636379 0.16279,0.258992 0.42179,0.399587 0.26639,0.140596 0.60678,0.140596 0.82877,0 1.30235,-0.636379 0.47359,-0.636379 0.47359,-1.768542 v -4.092065 h 2.64911 v 8.287727 h -2.64911 v -1.198761 q -0.59938,0.725176 -1.27276,1.072965 -0.66598,0.340388 -1.47255,0.340388 -1.43555,0 -2.19033,-0.88057 -0.74738,-0.880571 -0.74738,-2.560316 z"
         style="font-weight:bold;font-family:sans-serif;-inkscape-font-specification:'sans-serif Bold'"
         id="path1430" />
      <path
         d="m 126.62785,51.113171 q -0.82877,0 -1.25056,0.28119 -0.41438,0.281191 -0.41438,0.828773 0,0.503183 0.33298,0.791774 0.34039,0.281191 0.93977,0.281191 0.74738,0 1.25796,-0.532783 0.51059,-0.540182 0.51059,-1.346755 v -0.30339 z m 4.04767,-0.998968 v 4.728445 h -2.67131 v -1.22836 q -0.53279,0.754775 -1.19877,1.102564 -0.66597,0.340388 -1.62054,0.340388 -1.28756,0 -2.09413,-0.747375 -0.79918,-0.754775 -0.79918,-1.953535 0,-1.457752 0.99897,-2.13853 1.00637,-0.680777 3.1523,-0.680777 h 1.56135 v -0.207194 q 0,-0.628979 -0.49579,-0.917569 -0.49578,-0.295991 -1.54655,-0.295991 -0.85097,0 -1.58355,0.170195 -0.73257,0.170194 -1.36155,0.510583 v -2.020133 q 0.85097,-0.207194 1.70934,-0.31079 0.85838,-0.110997 1.71675,-0.110997 2.24212,0 3.23369,0.887971 0.99897,0.880571 0.99897,2.871105 z"
         style="font-weight:bold;font-family:sans-serif;-inkscape-font-specification:'sans-serif Bold'"
         id="path1432" />
      <path
         d="m 132.09627,46.554921 h 2.64911 l 2.06454,5.727411 2.05713,-5.727411 h 2.65651 l -3.26329,8.287727 h -2.90811 z"
         style="font-weight:bold;font-family:sans-serif;-inkscape-font-specification:'sans-serif Bold'"
         id="path1434" />
      <path
         d="m 146.73299,51.113171 q -0.82877,0 -1.25056,0.28119 -0.41438,0.281191 -0.41438,0.828773 0,0.503183 0.33299,0.791774 0.34038,0.281191 0.93976,0.281191 0.74738,0 1.25796,-0.532783 0.51059,-0.540182 0.51059,-1.346755 v -0.30339 z m 4.04767,-0.998968 v 4.728445 h -2.67131 v -1.22836 q -0.53279,0.754775 -1.19876,1.102564 -0.66598,0.340388 -1.62055,0.340388 -1.28756,0 -2.09413,-0.747375 -0.79918,-0.754775 -0.79918,-1.953535 0,-1.457752 0.99897,-2.13853 1.00637,-0.680777 3.1523,-0.680777 h 1.56135 v -0.207194 q 0,-0.628979 -0.49579,-0.917569 -0.49578,-0.295991 -1.54655,-0.295991 -0.85097,0 -1.58354,0.170195 -0.73258,0.170194 -1.36156,0.510583 v -2.020133 q 0.85097,-0.207194 1.70934,-0.31079 0.85838,-0.110997 1.71675,-0.110997 2.24212,0 3.23369,0.887971 0.99897,0.880571 0.99897,2.871105 z"
         style="font-weight:bold;font-family:sans-serif;-inkscape-font-specification:'sans-serif Bold'"
         id="path1436" />
    </g>
    <rect
       style="fill:#808080;stroke:none;stroke-width:0.793748;stroke-dasharray:0.793748, 0.793748"
       id="rect1167"
       width="190.17648"
       height="0.84331393"
       x="5.1039848"
       y="39.53046"
       ry="0.091349103" />
  </g>
</svg>
