<?xml version="1.0" encoding="UTF-8" standalone="no"?>
<!-- Generator: Adobe Illustrator 19.0.0, SVG Export Plug-In . SVG Version: 6.00 Build 0)  -->

<svg
   version="1.1"
   id="Layer_1"
   x="0px"
   y="0px"
   viewBox="0 0 297.85975 316.50526"
   xml:space="preserve"
   sodipodi:docname="ic-latex.svg"
   width="297.85974"
   height="316.50525"
   inkscape:version="1.1 (ce6663b3b7, 2021-05-25)"
   xmlns:inkscape="http://www.inkscape.org/namespaces/inkscape"
   xmlns:sodipodi="http://sodipodi.sourceforge.net/DTD/sodipodi-0.dtd"
   xmlns:xlink="http://www.w3.org/1999/xlink"
   xmlns="http://www.w3.org/2000/svg"
   xmlns:svg="http://www.w3.org/2000/svg"><defs
   id="defs63"><linearGradient
     inkscape:collect="always"
     id="linearGradient1004"><stop
       style="stop-color:#cdcdcd;stop-opacity:1"
       offset="0"
       id="stop1000" /><stop
       style="stop-color:#e7e7e7;stop-opacity:1"
       offset="1"
       id="stop1002" /></linearGradient><linearGradient
     inkscape:collect="always"
     xlink:href="#linearGradient1004"
     id="linearGradient869"
     x1="270.34601"
     y1="303.18799"
     x2="32.841999"
     y2="0"
     gradientUnits="userSpaceOnUse" /></defs><sodipodi:namedview
   id="namedview61"
   pagecolor="#ffffff"
   bordercolor="#666666"
   borderopacity="1.0"
   inkscape:pageshadow="2"
   inkscape:pageopacity="0.0"
   inkscape:pagecheckerboard="0"
   showgrid="false"
   inkscape:zoom="1.348998"
   inkscape:cx="78.947486"
   inkscape:cy="152.33529"
   inkscape:window-width="1920"
   inkscape:window-height="964"
   inkscape:window-x="1600"
   inkscape:window-y="27"
   inkscape:window-maximized="1"
   inkscape:current-layer="Layer_1"
   fit-margin-top="0"
   fit-margin-left="0"
   fit-margin-right="0"
   fit-margin-bottom="0"
   inkscape:snap-global="false" />
<rect
   style="fill:#999999;fill-opacity:1;stroke-width:3;stroke-dasharray:3, 3"
   id="rect932"
   width="249.38588"
   height="120.7637"
   x="0"
   y="148.90419"
   ry="11.152868" /><polygon
   style="fill:#999999;fill-opacity:1;stroke-width:0.944027"
   points="32.842,0 32.842,303.188 270.346,303.188 270.346,50.525 219.821,0 "
   id="polygon2-7"
   transform="matrix(1.0748853,0,0,1.0439241,7.2687938,0)" /><g
   id="g28"
   transform="translate(17.288338,5.5781874)">
	<polygon
   style="fill:url(#linearGradient869);fill-opacity:1"
   points="32.842,0 32.842,303.188 270.346,303.188 270.346,50.525 219.821,0 "
   id="polygon2" />
	<g
   id="g10">
		
		
		
	</g>
	
	
	<g
   id="g22">
		
		
		
	</g>
	
	<polygon
   style="fill:#bbbcbc;fill-opacity:1"
   points="219.821,50.525 270.346,50.525 219.821,0 "
   id="polygon26" />
</g>
<g
   id="g30"
   transform="translate(17.288338,5.5781874)">
</g>
<g
   id="g32"
   transform="translate(17.288338,5.5781874)">
</g>
<g
   id="g34"
   transform="translate(17.288338,5.5781874)">
</g>
<g
   id="g36"
   transform="translate(17.288338,5.5781874)">
</g>
<g
   id="g38"
   transform="translate(17.288338,5.5781874)">
</g>
<g
   id="g40"
   transform="translate(17.288338,5.5781874)">
</g>
<g
   id="g42"
   transform="translate(17.288338,5.5781874)">
</g>
<g
   id="g44"
   transform="translate(17.288338,5.5781874)">
</g>
<g
   id="g46"
   transform="translate(17.288338,5.5781874)">
</g>
<g
   id="g48"
   transform="translate(17.288338,5.5781874)">
</g>
<g
   id="g50"
   transform="translate(17.288338,5.5781874)">
</g>
<g
   id="g52"
   transform="translate(17.288338,5.5781874)">
</g>
<g
   id="g54"
   transform="translate(17.288338,5.5781874)">
</g>
<g
   id="g56"
   transform="translate(17.288338,5.5781874)">
</g>
<g
   id="g58"
   transform="translate(17.288338,5.5781874)">
</g>
<rect
   style="fill:#46a247;fill-opacity:1;stroke-width:3;stroke-dasharray:3, 3"
   id="rect1165"
   width="242.53873"
   height="107.30247"
   x="6.8471684"
   y="156.3181"
   ry="9.9096851" /><g
   style="overflow:scroll;fill:#ffffff;fill-opacity:1;stroke-width:5.08706"
   id="g1141"
   transform="matrix(0.19657743,0,0,0.19657743,11.741297,164.92857)"><path
     d="M 5.46,4.23 H 5.21 c -0.1,1.02 -0.24,2.26 -2,2.26 H 2.4 C 1.93,6.49 1.91,6.42 1.91,6.09 V 0.78 c 0,-0.34 0,-0.48 0.94,-0.48 H 3.18 V 0 C 2.82,0.03 1.92,0.03 1.51,0.03 1.12,0.03 0.34,0.03 0,0 V 0.3 H 0.23 C 1,0.3 1.02,0.41 1.02,0.77 V 6.02 C 1.02,6.38 1,6.49 0.23,6.49 H 0 V 6.8 h 5.19 z"
     transform="matrix(45,0,0,45,40,47.65)"
     id="path1120"
     style="fill:#ffffff;fill-opacity:1;stroke-width:5.08706" /><path
     d="M 2.81,0.16 C 2.77,0.04 2.75,0 2.62,0 2.49,0 2.46,0.04 2.42,0.16 L 0.81,4.24 C 0.74,4.41 0.62,4.72 0,4.72 V 4.97 H 1.55 V 4.72 c -0.31,0 -0.5,-0.14 -0.5,-0.34 0,-0.05 0.01,-0.07 0.03,-0.14 0,0 0.34,-0.86 0.34,-0.86 H 3.4 L 3.8,4.4 c 0.02,0.04 0.04,0.09 0.04,0.12 0,0.2 -0.38,0.2 -0.57,0.2 V 4.97 H 5.24 V 4.72 H 5.1 c -0.47,0 -0.52,-0.07 -0.59,-0.27 0,0 -1.7,-4.29 -1.7,-4.29 z M 2.41,0.87 3.3,3.13 H 1.52 Z"
     transform="matrix(45,0,0,45,151.6,40)"
     id="path1122"
     style="fill:#ffffff;fill-opacity:1;stroke-width:5.08706" /><path
     d="M 6.27,0 H 0.18 C 0.18,0 0,2.24 0,2.24 H 0.24 C 0.38,0.63 0.53,0.3 2.04,0.3 c 0.18,0 0.44,0 0.54,0.02 0.21,0.04 0.21,0.15 0.21,0.38 v 5.25 c 0,0.34 0,0.48 -1.05,0.48 H 1.34 V 6.74 C 1.75,6.71 2.76,6.71 3.22,6.71 c 0.46,0 1.49,0 1.9,0.03 V 6.43 H 4.72 C 3.67,6.43 3.67,6.29 3.67,5.95 V 0.7 c 0,-0.2 0,-0.34 0.18,-0.38 C 3.96,0.3 4.23,0.3 4.42,0.3 c 1.5,0 1.65,0.33 1.79,1.94 H 6.46 C 6.46,2.24 6.27,0 6.27,0 Z"
     transform="matrix(45,0,0,45,356.35,50.35)"
     id="path1124"
     style="fill:#ffffff;fill-opacity:1;stroke-width:5.08706" /><path
     d="M 6.16,4.2 H 5.91 C 5.66,5.73 5.43,6.46 3.72,6.46 H 2.4 C 1.93,6.46 1.91,6.39 1.91,6.06 V 3.4 H 2.8 c 0.97,0 1.08,0.32 1.08,1.17 H 4.13 V 1.93 H 3.88 C 3.88,2.78 3.77,3.09 2.8,3.09 H 1.91 V 0.7 C 1.91,0.37 1.93,0.3 2.4,0.3 h 1.28 c 1.53,0 1.79,0.55 1.95,1.94 H 5.88 L 5.6,0 H 0 V 0.3 H 0.23 C 1,0.3 1.02,0.41 1.02,0.77 V 5.99 C 1.02,6.35 1,6.46 0.23,6.46 H 0 v 0.31 h 5.74 z"
     transform="matrix(45,0,0,45,602.5,150.25)"
     id="path1126"
     style="fill:#ffffff;fill-opacity:1;stroke-width:5.08706" /><path
     d="m 3.76,2.95 1.37,-2 C 5.34,0.63 5.68,0.31 6.57,0.3 V 0 H 4.19 v 0.3 c 0.4,0.01 0.62,0.23 0.62,0.46 0,0.1 -0.02,0.12 -0.09,0.23 0,0 -1.14,1.68 -1.14,1.68 L 2.3,0.75 C 2.28,0.72 2.23,0.64 2.23,0.6 2.23,0.48 2.45,0.31 2.87,0.3 V 0 C 2.53,0.03 1.8,0.03 1.42,0.03 1.11,0.03 0.49,0.02 0.12,0 v 0.3 h 0.19 c 0.55,0 0.74,0.07 0.93,0.35 0,0 1.83,2.77 1.83,2.77 L 1.44,5.83 C 1.3,6.03 1,6.49 0,6.49 V 6.8 H 2.38 V 6.49 C 1.92,6.48 1.75,6.21 1.75,6.03 1.75,5.94 1.78,5.9 1.85,5.79 L 3.26,3.7 4.84,6.08 c 0.02,0.04 0.05,0.08 0.05,0.11 0,0.12 -0.22,0.29 -0.65,0.3 V 6.8 C 4.59,6.77 5.32,6.77 5.69,6.77 c 0.42,0 0.88,0.01 1.3,0.03 V 6.49 H 6.8 c -0.52,0 -0.73,-0.05 -0.94,-0.36 0,0 -2.1,-3.18 -2.1,-3.18 z"
     transform="matrix(45,0,0,45,845.95,47.65)"
     id="path1128"
     style="fill:#ffffff;fill-opacity:1;stroke-width:5.08706" /></g></svg>
