<?xml version="1.0" encoding="utf-8"?><svg version="1.1" id="Livello_1" xmlns="http://www.w3.org/2000/svg" xmlns:xlink="http://www.w3.org/1999/xlink" x="0px" y="0px" viewBox="0 0 512 512" style="enable-background:new 0 0 512 512" xml:space="preserve"><style type="text/css">.st0{fill:#41A5EE;} .st1{fill:#2B7CD3;} .st2{fill:#185ABD;} .st3{fill:#103F91;} .st4{opacity:0.1;enable-background:new ;} .st5{opacity:0.2;enable-background:new ;} .st6{fill:url(#SVGID_1_);} .st7{fill:#FFFFFF;}</style><path class="st0" d="M490.17,19.2H140.9c-12.05,0-21.83,9.72-21.83,21.7l0,0v96.7l202.42,59.2L512,137.6V40.9	C512,28.91,502.23,19.2,490.17,19.2L490.17,19.2z"/><path class="st1" d="M512,137.6H119.07V256l202.42,35.52L512,256V137.6z"/><path class="st2" d="M119.07,256v118.4l190.51,23.68L512,374.4V256H119.07z"/><path class="st3" d="M140.9,492.8h349.28c12.05,0,21.83-9.72,21.83-21.7l0,0v-96.7H119.07v96.7	C119.07,483.09,128.84,492.8,140.9,492.8L140.9,492.8z"/><path class="st4" d="M263.94,113.92H119.07v296h144.87c12.04-0.04,21.79-9.73,21.83-21.7v-252.6	C285.73,123.65,275.98,113.96,263.94,113.92z"/><path class="st5" d="M252.04,125.76H119.07v296h132.97c12.04-0.04,21.79-9.73,21.83-21.7v-252.6	C273.82,135.49,264.07,125.8,252.04,125.76z"/><path class="st5" d="M252.04,125.76H119.07v272.32h132.97c12.04-0.04,21.79-9.73,21.83-21.7V147.46	C273.82,135.49,264.07,125.8,252.04,125.76z"/><path class="st5" d="M240.13,125.76H119.07v272.32h121.06c12.04-0.04,21.79-9.73,21.83-21.7V147.46	C261.91,135.49,252.17,125.8,240.13,125.76z"/><linearGradient id="SVGID_1_" gradientUnits="userSpaceOnUse" x1="45.8183" y1="-1083.4916" x2="216.1361" y2="-788.5082" gradientTransform="matrix(1 0 0 1 0 1192)"><stop offset="0" style="stop-color:#2368C4"/><stop offset="0.5" style="stop-color:#1A5DBE"/><stop offset="1" style="stop-color:#1146AC"/></linearGradient><path class="st6" d="M21.83,125.76h218.3c12.05,0,21.83,9.72,21.83,21.7v217.08c0,11.99-9.77,21.7-21.83,21.7H21.83	C9.77,386.24,0,376.52,0,364.54V147.46C0,135.48,9.77,125.76,21.83,125.76z"/><path class="st7" d="M89.56,292.21c0.43,3.35,0.71,6.26,0.85,8.76h0.5c0.19-2.37,0.59-5.22,1.19-8.56c0.6-3.34,1.15-6.16,1.63-8.47	l22.96-98.49h29.68l23.81,97.01c1.38,6.03,2.37,12.15,2.96,18.3h0.39c0.44-5.97,1.27-11.9,2.48-17.76l18.99-97.6h27.02	l-33.36,141.13H157.1l-22.62-93.47c-0.65-2.69-1.4-6.2-2.23-10.53s-1.33-7.48-1.54-9.47h-0.39c-0.26,2.3-0.77,5.71-1.54,10.23	c-0.76,4.52-1.37,7.87-1.83,10.04l-21.27,93.17h-32.1L40.04,185.46h27.5l20.68,98.69C88.7,286.17,89.14,288.87,89.56,292.21z"/></svg>