<?xml version="1.0" encoding="UTF-8" standalone="no"?>
<!-- Generator: Adobe Illustrator 19.0.0, SVG Export Plug-In . SVG Version: 6.00 Build 0)  -->

<svg
   version="1.1"
   id="Layer_1"
   x="0px"
   y="0px"
   viewBox="0 0 252.49946 318.2234"
   xml:space="preserve"
   sodipodi:docname="ic-odt.svg"
   inkscape:version="1.1 (ce6663b3b7, 2021-05-25)"
   width="252.49945"
   height="318.22339"
   xmlns:inkscape="http://www.inkscape.org/namespaces/inkscape"
   xmlns:sodipodi="http://sodipodi.sourceforge.net/DTD/sodipodi-0.dtd"
   xmlns="http://www.w3.org/2000/svg"
   xmlns:svg="http://www.w3.org/2000/svg"><defs
   id="defs63" /><sodipodi:namedview
   id="namedview61"
   pagecolor="#ffffff"
   bordercolor="#666666"
   borderopacity="1.0"
   inkscape:pageshadow="2"
   inkscape:pageopacity="0.0"
   inkscape:pagecheckerboard="0"
   showgrid="false"
   inkscape:zoom="1.9077713"
   inkscape:cx="79.936205"
   inkscape:cy="134.97425"
   inkscape:window-width="1920"
   inkscape:window-height="964"
   inkscape:window-x="1600"
   inkscape:window-y="27"
   inkscape:window-maximized="1"
   inkscape:current-layer="Layer_1"
   inkscape:snap-global="false"
   fit-margin-top="0"
   fit-margin-left="0"
   fit-margin-right="0"
   fit-margin-bottom="0" />
<g
   id="g28"
   transform="translate(-24.816242,6.6161046)">
	<polygon
   style="fill:#999999;fill-opacity:1;stroke-width:0.946663"
   points="32.842,0 32.842,303.188 270.346,303.188 270.346,50.525 219.821,0 "
   id="polygon5434"
   transform="matrix(1.0631377,0,0,1.049591,-10.099326,-6.6161046)" /><polygon
   style="fill:#e8e8e8"
   points="270.346,303.188 270.346,50.525 219.821,0 32.842,0 32.842,303.188 "
   id="polygon2" />
	<g
   id="g10">
		<rect
   x="92.817001"
   y="166.37"
   style="fill:#38a3ff"
   width="49.542999"
   height="12.865"
   id="rect4" />
		<rect
   x="92.817001"
   y="141.728"
   style="fill:#38a3ff"
   width="107.543"
   height="12.865"
   id="rect6" />
		<rect
   x="92.817001"
   y="117.087"
   style="fill:#38a3ff"
   width="117.551"
   height="12.865"
   id="rect8" />
	</g>
	<path
   style="fill:#38a3ff"
   d="m 117.667,104.217 c -1.26,0 -2.437,-0.764 -2.92,-1.987 -2.487,-6.298 -8.172,-6.909 -11.333,-6.712 -5.387,0.333 -9.65,3.229 -10.106,4.997 -0.434,1.679 -2.147,2.69 -3.826,2.255 -1.679,-0.433 -2.69,-2.146 -2.256,-3.825 1.304,-5.05 8.097,-9.219 15.801,-9.695 4.568,-0.29 8.63,0.842 11.824,3.146 1.079,-4.168 3.516,-7.706 7.164,-10.229 5.815,-4.021 13.649,-4.619 19.046,-1.454 1.497,0.877 1.999,2.802 1.122,4.298 -0.878,1.497 -2.804,1.996 -4.298,1.121 -3.26,-1.91 -8.546,-1.393 -12.298,1.202 -4.083,2.823 -5.795,7.516 -4.822,13.213 0.271,1.586 -0.7,3.12 -2.249,3.554 -0.284,0.078 -0.569,0.116 -0.849,0.116 z"
   id="path12" />
	<path
   style="fill:#38a3ff"
   d="m 118.552,78.929 c -0.782,0 -1.511,-0.474 -1.812,-1.233 -1.541,-3.905 -5.064,-4.281 -7.027,-4.163 -3.34,0.207 -5.984,2.003 -6.268,3.1 -0.269,1.041 -1.33,1.669 -2.372,1.398 -1.042,-0.268 -1.668,-1.33 -1.4,-2.372 0.809,-3.132 5.021,-5.717 9.799,-6.013 2.831,-0.176 5.352,0.521 7.332,1.951 0.669,-2.586 2.18,-4.779 4.442,-6.343 3.607,-2.493 8.465,-2.865 11.812,-0.903 0.929,0.545 1.24,1.738 0.696,2.666 -0.543,0.928 -1.737,1.24 -2.665,0.695 -2.02,-1.186 -5.299,-0.863 -7.627,0.746 -2.532,1.751 -3.595,4.66 -2.99,8.193 0.168,0.982 -0.435,1.936 -1.396,2.205 -0.174,0.049 -0.349,0.073 -0.524,0.073 z"
   id="path14" />
	<g
   id="g22">
		<path
   style="fill:#a4a9ad"
   d="m 129.631,249.816 c 0,8.072 -1.98,14.209 -5.94,18.41 -3.96,4.201 -9.758,6.301 -17.394,6.301 -7.526,0 -13.296,-2.111 -17.311,-6.334 -4.015,-4.222 -6.022,-10.37 -6.022,-18.443 0,-7.985 1.996,-14.084 5.989,-18.295 3.992,-4.212 9.796,-6.318 17.41,-6.318 7.635,0 13.422,2.09 17.36,6.268 3.939,4.179 5.908,10.316 5.908,18.411 z m -33.015,0 c 0,9.275 3.227,13.914 9.681,13.914 3.282,0 5.716,-1.127 7.302,-3.381 1.586,-2.252 2.379,-5.764 2.379,-10.533 0,-4.792 -0.804,-8.33 -2.412,-10.617 -1.608,-2.285 -4.01,-3.43 -7.204,-3.43 -6.497,0.001 -9.746,4.683 -9.746,14.047 z"
   id="path16" />
		<path
   style="fill:#a4a9ad"
   d="m 179.022,248.864 c 0,8.007 -2.205,14.177 -6.613,18.509 -4.408,4.332 -10.605,6.498 -18.591,6.498 H 138.295 V 225.892 H 154.9 c 7.701,0 13.646,1.97 17.836,5.907 4.19,3.938 6.286,9.627 6.286,17.065 z m -13.456,0.46 c 0,-4.398 -0.87,-7.658 -2.609,-9.78 -1.739,-2.122 -4.381,-3.183 -7.926,-3.183 h -3.773 v 26.877 h 2.888 c 3.938,0 6.826,-1.142 8.664,-3.43 1.837,-2.285 2.756,-5.781 2.756,-10.484 z"
   id="path18" />
		<path
   style="fill:#a4a9ad"
   d="m 208.787,273.871 h -12.963 v -37.379 h -11.716 v -10.6 h 36.361 v 10.6 h -11.683 v 37.379 z"
   id="path20" />
	</g>
	<polygon
   style="fill:#38a3ff"
   points="227.64,25.263 32.842,25.263 32.842,0 219.821,0 "
   id="polygon24" />
	<polygon
   style="fill:#d1d3d3"
   points="219.821,0 219.821,50.525 270.346,50.525 "
   id="polygon26" />
</g>
<g
   id="g30"
   transform="translate(-24.816242,6.6161046)">
</g>
<g
   id="g32"
   transform="translate(-24.816242,6.6161046)">
</g>
<g
   id="g34"
   transform="translate(-24.816242,6.6161046)">
</g>
<g
   id="g36"
   transform="translate(-24.816242,6.6161046)">
</g>
<g
   id="g38"
   transform="translate(-24.816242,6.6161046)">
</g>
<g
   id="g40"
   transform="translate(-24.816242,6.6161046)">
</g>
<g
   id="g42"
   transform="translate(-24.816242,6.6161046)">
</g>
<g
   id="g44"
   transform="translate(-24.816242,6.6161046)">
</g>
<g
   id="g46"
   transform="translate(-24.816242,6.6161046)">
</g>
<g
   id="g48"
   transform="translate(-24.816242,6.6161046)">
</g>
<g
   id="g50"
   transform="translate(-24.816242,6.6161046)">
</g>
<g
   id="g52"
   transform="translate(-24.816242,6.6161046)">
</g>
<g
   id="g54"
   transform="translate(-24.816242,6.6161046)">
</g>
<g
   id="g56"
   transform="translate(-24.816242,6.6161046)">
</g>
<g
   id="g58"
   transform="translate(-24.816242,6.6161046)">
</g>
</svg>
